# xmcd
#
# Track frame offsets: 
#        169
#        18945
#        38871
#        58640
#        79596
#        110914
#        131476
#        148759
#        167409
#        189962
#        209254
#        225910
#        241799
#        257996
#        305354
#
# Disc length: 4440 seconds
#
# Revision: 5
# Processed by: cddbd v1.5.2PL0 Copyright (c) Steve Scherf et al.
# Submitted via: ExactAudioCopy v0.99pb3
#
DISCID=c011560f
DTITLE=Sergio Cammariere - Dalla Pace Del Mare Lontano
DYEAR=2003
DGENRE=Jazz
TTITLE0=Tutto quello che un uomo
TTITLE1=Sorella mia
TTITLE2=Tempo perduto
TTITLE3=Via da questo mare
TTITLE4=Cambiamenti del mondo
TTITLE5=Dalla Pace Del Mare lontano
TTITLE6=Apri la porta
TTITLE7=Canto del vento
TTITLE8=Le porte del sogno
TTITLE9=Il mare
TTITLE10=Per ricordarmi di te
TTITLE11=Paese goal
TTITLE12=Vita d'artista
TTITLE13=Cantautore piccolino
TTITLE14=Dalla Pace Del Mare
EXTD=YEAR: 2003
EXTT0=
EXTT1=
EXTT2=
EXTT3=
EXTT4=
EXTT5=
EXTT6=
EXTT7=
EXTT8=
EXTT9=
EXTT10=
EXTT11=
EXTT12=
EXTT13=
EXTT14=
PLAYORDER=
